<svg fill="#06050F" xmlns="http://www.w3.org/2000/svg" version="1.1" viewBox="-5.0 -10.0 110.0 135.0">
 <path d="m42.922 43.484h14.156c1.0664 0 1.9336-0.86328 1.9336-1.9297 0-1.0703-0.86719-1.9336-1.9336-1.9336h-14.156c-1.0664 0-1.9336 0.86328-1.9336 1.9336 0 1.0664 0.86719 1.9297 1.9336 1.9297zm17.738 22.609h-21.32c-0.49219 0-0.96094 0.19531-1.3086 0.54297-0.34766 0.34766-0.54297 0.81641-0.54297 1.3086v3.1328c0 0.089844 0.074219 0.16406 0.16406 0.16406h24.695c0.089844 0 0.16406-0.074219 0.16406-0.16406v-3.1328c0-1.0234-0.82812-1.8516-1.8516-1.8516zm0.70703-1.9531c0-0.83203-0.33203-1.6328-0.92188-2.2266-0.58984-0.58984-1.3906-0.92187-2.2266-0.92187h-16.438c-1.7383 0-3.1484 1.4102-3.1484 3.1484v0.24609l22.734 0.003906zm-5.5312-26.035c0.98437-2.0117 0.85937-4.3906-0.32813-6.2891-1.1875-1.8984-3.2695-3.0547-5.5078-3.0547s-4.3203 1.1562-5.5078 3.0547c-1.1875 1.8984-1.3125 4.2773-0.32813 6.2891zm-11.93 6.8945-1.2109 14.48h14.609l-1.2109-14.48zm23.875-21.672v8.8906h8.8906v-8.8906zm-54.812-10.359v74.062h74.062v-74.062zm72.594 19.25h-8.8906v8.8906h8.8906v8.8906h-8.8906v8.8906h8.8906v8.8906h-8.8906v8.8906h8.8906v8.8906h-8.8906v-8.8906h-8.8906v8.8906h-8.8906v-8.8906h-8.8906v8.8906h-8.8906v-8.8906h-8.8906v8.8906h-8.8906v-8.8906h-8.8906v-8.8906h8.8906v-8.8906h-8.8906v-8.8906h8.8906v-8.8906h-8.8906v-8.8906h8.8906v-8.8906h-8.8906v-8.8906h8.8906v8.8906h8.8906v-8.8906h8.8906v8.8906h8.8906v-8.8906h8.8906v8.8906h8.8906v-8.8906h8.8906v8.8906h8.8906zm-53.344 0h-8.8906v8.8906h8.8906zm0 17.781h-8.8906v8.8906h8.8906zm35.562 0h8.8906v-8.8906h-8.8906zm-44.453 17.781v8.8906h8.8906v-8.8906zm44.453 0h8.8906v-8.8906h-8.8906z"/>
</svg>